<?xml version="1.0" encoding="utf-8"?>
<!-- Generator: Adobe Illustrator 27.5.0, SVG Export Plug-In . SVG Version: 6.00 Build 0)  -->
<svg version="1.1" xmlns="http://www.w3.org/2000/svg" xmlns:xlink="http://www.w3.org/1999/xlink" x="0px" y="0px"
	 viewBox="0 0 3710 3710" style="enable-background:new 0 0 3710 3710;" xml:space="preserve">
<g id="Background">
	<g>
		<g>
			<rect style="fill:#FFFFFF;" width="3710" height="3710"/>
		</g>
	</g>
</g>
<g id="Illustration">
	<g>
		<linearGradient id="SVGID_1_" gradientUnits="userSpaceOnUse" x1="3560.0435" y1="4066.5046" x2="1078.8105" y2="984.9689">
			<stop  offset="0" style="stop-color:#B37CFF"/>
			<stop  offset="1" style="stop-color:#F895E7"/>
		</linearGradient>
		<path style="opacity:0.3;fill:url(#SVGID_1_);" d="M2877.441,2851.258c-56.993,60-110.919,98.693-153.525,129.263
			c-500.825,359.348-1093.435,254.6-1219.381,229.019c-185.983-37.774-545.484-110.791-805.397-416.443
			c-393.227-462.426-331.995-1190.966-26.982-1671.885c55.792-87.969,350.5-576.213,949.492-654.512
			c362.504-47.386,785.067,48.186,1091.075,304.56C3355.06,1309.413,3309.333,2396.576,2877.441,2851.258z"/>
		<g>
			<g>
				
					<linearGradient id="SVGID_00000109707758153775507660000002833720959227547055_" gradientUnits="userSpaceOnUse" x1="2810.1323" y1="2272.2119" x2="1280.3309" y2="4205.3267" gradientTransform="matrix(0.9692 -0.2464 0.2464 0.9692 -201.178 80.3798)">
					<stop  offset="0" style="stop-color:#CB236D"/>
					<stop  offset="1" style="stop-color:#4C246D"/>
				</linearGradient>
				<path style="fill:url(#SVGID_00000109707758153775507660000002833720959227547055_);" d="M3233.056,1461.396
					c-0.11-16.624-22.482-22.063-30.147-7.312c-74.108,142.618-280.145,510.5-514.373,679.66
					c-381.377,275.432-703.2,784.748-564.072,1112.351C2124.463,3246.095,3244.998,3272.697,3233.056,1461.396z"/>
				<path style="opacity:0.43;fill:#FFFFFF;" d="M3158.062,1671.311c-1.417,4.871-2.973,8.778-4.463,13.053l-4.664,12.508
					l-9.597,24.886c-6.509,16.542-13.27,32.978-20.032,49.414c-13.641,32.822-27.689,65.471-42.037,97.992
					c-28.815,64.988-59.386,129.187-90.917,192.912c-31.443,63.776-64.671,126.672-99.216,188.838
					c-34.598,62.133-70.09,123.801-107.591,184.268c-74.752,121.058-156.159,238.166-245.513,349.052
					c-45.251,54.96-91.963,108.768-141.697,159.75c-50.081,50.606-102.341,99.108-157.901,143.582
					c-1.208,0.967-2.971,0.772-3.938-0.437c-0.943-1.177-0.781-2.885,0.348-3.865l0.03-0.025
					c53.597-46.428,104.601-95.653,153.082-147.274c48.632-51.494,94.225-105.768,138.337-161.146
					c44.095-55.42,85.949-112.607,126.485-170.696c40.522-58.121,78.618-117.889,116.367-177.855
					c75.008-120.288,143.56-244.534,208.638-370.538c32.408-63.079,63.547-126.818,93.548-191.094
					c15.052-32.115,29.81-64.37,44.166-96.805l21.149-48.813l10.32-24.503l5.019-12.295c1.579-4.054,3.344-8.385,4.58-11.989
					l0.204-0.595c0.497-1.451,2.077-2.225,3.528-1.728C3157.703,1668.39,3158.471,1669.896,3158.062,1671.311z"/>
			</g>
			<g>
				
					<linearGradient id="SVGID_00000163769867647399790010000012333807747095348612_" gradientUnits="userSpaceOnUse" x1="1716.0382" y1="1681.4657" x2="252.3442" y2="3531.0444" gradientTransform="matrix(0.8587 -0.5125 0.5125 0.8587 343.65 352.6202)">
					<stop  offset="0" style="stop-color:#A737D5"/>
					<stop  offset="1" style="stop-color:#EF497A"/>
				</linearGradient>
				<path style="fill:url(#SVGID_00000163769867647399790010000012333807747095348612_);" d="M2782.089,757.779
					c-4.635-15.215-26.636-14.1-29.642,1.519c-29.054,151.005-117.641,544.578-286.293,763.605
					c-274.604,356.625-430.789,911.488-213.831,1173.962C2252.323,2696.865,3287.168,2415.575,2782.089,757.779z"/>
				<path style="opacity:0.43;fill:#FFFFFF;" d="M2770.631,970.736c0.031,4.864-0.33,8.867-0.528,13.195l-0.863,12.745
					l-2.004,25.442c-1.452,16.947-3.165,33.864-4.879,50.782c-3.549,33.822-7.517,67.597-11.796,101.336
					c-8.685,67.461-19.2,134.677-30.721,201.722c-11.427,67.067-24.736,133.813-39.455,200.248
					c-14.776,66.419-30.498,132.657-48.391,198.343c-35.524,131.414-78.244,261.019-129.947,387.085
					c-26.515,62.745-54.684,124.832-86.395,185.15c-32.138,60.067-66.844,118.798-105.684,174.729
					c-0.86,1.239-2.561,1.545-3.8,0.685c-1.208-0.838-1.529-2.477-0.749-3.705l0.021-0.031
					c36.463-57.21,69.796-116.268,100.158-176.838c30.539-60.491,57.534-122.702,82.869-185.521
					c25.31-62.853,48.09-126.71,69.412-191.038c21.302-64.352,39.925-129.556,58.189-194.841
					c35.979-130.765,64.944-263.404,90.269-396.702c12.521-66.683,23.694-133.629,33.684-200.754
					c5.049-33.555,9.791-67.16,14.115-100.819l6.089-50.53l2.786-25.285l1.252-12.644c0.343-4.146,0.782-8.604,0.933-12.234
					l0.025-0.614c0.062-1.493,1.323-2.654,2.816-2.592C2769.485,968.109,2770.619,969.303,2770.631,970.736z"/>
			</g>
		</g>
		<g>
			
				<linearGradient id="SVGID_00000100358961283776733030000013106716152151319996_" gradientUnits="userSpaceOnUse" x1="902.0407" y1="2020.2703" x2="2555.7827" y2="2020.2703">
				<stop  offset="0" style="stop-color:#2B3582"/>
				<stop  offset="1" style="stop-color:#150E42"/>
			</linearGradient>
			<path style="fill:url(#SVGID_00000100358961283776733030000013106716152151319996_);" d="M932.345,911.409
				c-9.754,393.453-41.388,1750.623-26.286,2231.563c1.6,50.951,42.445,91.846,93.394,93.513
				c251.996,8.247,976.915,29.148,1389.095,11.855c85.851-3.602,154.121-73.141,155.903-159.049
				c8.565-412.98,27.462-1574.536-17.454-2106.645c-5.382-63.755-55.422-114.525-119.085-120.894
				c-274.435-27.454-1003.327-94.562-1359.425-71.453C984.263,794.467,933.94,847.071,932.345,911.409z"/>
			
				<linearGradient id="SVGID_00000085960354683552851000000007190746132120332205_" gradientUnits="userSpaceOnUse" x1="2146.0203" y1="1393.0983" x2="-1187.6897" y2="5657.7354">
				<stop  offset="0" style="stop-color:#FDF53F"/>
				<stop  offset="0.6645" style="stop-color:#E57A58"/>
				<stop  offset="1" style="stop-color:#D93C65"/>
			</linearGradient>
			<path style="fill:url(#SVGID_00000085960354683552851000000007190746132120332205_);" d="M1034.738,1033.664
				c-13.764,322.235-57.176,1394.237-43.397,1790.642c2.014,57.94,47.68,104.789,105.556,108.176
				c238.293,13.945,849.492,44.693,1199.008,16.705c62.937-5.04,112.324-55.938,115.72-118.984
				c17.712-328.748,68.568-1326.933,55.36-1718.894c-2.107-62.529-50.543-113.595-112.857-119.19
				c-257.795-23.146-919.899-78.219-1216.908-62.014C1081.466,933.146,1037.121,977.877,1034.738,1033.664z"/>
			<path style="opacity:0.5;fill:#FFFFFF;" d="M1555.125,859.049L1555.125,859.049c0,12.073,9.409,22.03,21.465,22.661
				c59.52,3.117,227.188,11.937,302.121,16.285c14.774,0.857,26.37-12.424,23.568-26.955l-0.478-2.48
				c-1.912-9.916-10.136-17.379-20.192-18.3c-50.651-4.641-203.487-17.51-304.752-13.896
				C1564.692,836.798,1555.125,846.877,1555.125,859.049z"/>
		</g>
		<path style="opacity:0.8;fill:#FFFFFF;" d="M2221.815,2195.591l-1013.141-19.449c-33.029-0.634-57.902,37.837-55.174,85.493
			c2.699,47.174,37.149,61.394,69.523,60.896l991.129,7.934c20.303-0.312,38.406-30.139,40.64-66.884
			C2257.042,2226.543,2242.372,2195.986,2221.815,2195.591z"/>
		<path style="opacity:0.8;fill:#FFFFFF;" d="M2224.557,2506.348l-1013.14-19.45c-33.029-0.634-57.902,37.837-55.174,85.493
			c2.699,47.174,37.149,61.394,69.523,60.896l991.129,7.934c20.304-0.312,38.406-30.139,40.64-66.884
			C2259.784,2537.3,2245.115,2506.742,2224.557,2506.348z"/>
		
			<linearGradient id="SVGID_00000181783872078796578850000013223519300981161094_" gradientUnits="userSpaceOnUse" x1="1524.5433" y1="714.6275" x2="1515.2773" y2="1613.368">
			<stop  offset="0" style="stop-color:#A737D5"/>
			<stop  offset="1" style="stop-color:#EF497A"/>
		</linearGradient>
		<path style="fill:url(#SVGID_00000181783872078796578850000013223519300981161094_);" d="M1789.57,2238.093l-549.827-5.714
			c-17.925-0.187-31.404,10.134-29.901,22.935c1.488,12.671,20.19,16.507,37.759,16.389l537.875,2.611
			c11.018-0.074,20.828-8.076,22.022-17.944C1808.702,2246.423,1800.727,2238.208,1789.57,2238.093z"/>
		<g>
			
				<linearGradient id="SVGID_00000084526593173565664340000016364651977733090203_" gradientUnits="userSpaceOnUse" x1="-3704.5288" y1="-1917.3507" x2="-3343.0576" y2="-1078.463" gradientTransform="matrix(-1 0 0 1 -1165.4333 0)">
				<stop  offset="0" style="stop-color:#2B3582"/>
				<stop  offset="1" style="stop-color:#150E42"/>
			</linearGradient>
			<path style="fill:url(#SVGID_00000084526593173565664340000016364651977733090203_);" d="M882.245,1901.063
				c0,0-29.776,14.483-35.251,31.121c-4.393,13.349-37.317,15.07-40.57,41.325c-1.679,13.555-11.71,24.412-25.211,26.482
				c-33.628,5.154-85.45,22.615-93.741,81c-6.329,44.563,16.389,61.461,40.231,67.31c17.511,4.296,29.148,21.328,25.607,39.007
				c-3.397,16.957,1.668,36.56,31.045,52.061c65.831,34.737,131.574-82.294,131.574-82.294l13.473-204.343L882.245,1901.063z"/>
			
				<linearGradient id="SVGID_00000087408977640587168970000017038188361671241115_" gradientUnits="userSpaceOnUse" x1="986.3804" y1="2159.9856" x2="1324.0175" y2="1721.4694">
				<stop  offset="0" style="stop-color:#F9B776"/>
				<stop  offset="1" style="stop-color:#F47960"/>
			</linearGradient>
			<path style="fill:url(#SVGID_00000087408977640587168970000017038188361671241115_);" d="M1240.45,1852.619
				c0,0-131.44,207.902-287.739,248.059c0,0,30.455,86.742,53.962,96.669c0,0,192.291-160.445,241.707-315.186L1240.45,1852.619z"/>
			
				<linearGradient id="SVGID_00000162341262307487111530000007740932652393549193_" gradientUnits="userSpaceOnUse" x1="-1777.1752" y1="3200.3235" x2="-1702.2798" y2="3200.3235" gradientTransform="matrix(-1 0 0 1 -1165.4333 0)">
				<stop  offset="0" style="stop-color:#A737D5"/>
				<stop  offset="1" style="stop-color:#EF497A"/>
			</linearGradient>
			<path style="fill:url(#SVGID_00000162341262307487111530000007740932652393549193_);" d="M611.653,3182.361l-4.26,35.02
				c-0.808,6.644-6.038,11.897-12.688,12.656c-11.226,1.282-29.242,2.597-46.869,0.734c-7.737-0.818-12.76-8.653-10.403-16.067
				c4.297-13.519,12.158-33.813,23.492-45.756h38.848C606.955,3168.948,612.52,3175.231,611.653,3182.361z"/>
			
				<linearGradient id="SVGID_00000057126867907399791240000003685039768400681627_" gradientUnits="userSpaceOnUse" x1="-2093.646" y1="3495.6692" x2="-1985.8665" y2="2235.9937" gradientTransform="matrix(-1 0 0 1 -1165.4333 0)">
				<stop  offset="0" style="stop-color:#F9B776"/>
				<stop  offset="1" style="stop-color:#F47960"/>
			</linearGradient>
			<path style="fill:url(#SVGID_00000057126867907399791240000003685039768400681627_);" d="M915.928,2772.119l6.557,38.571
				c0,0-21.958,222.419-25.864,311.386c-0.612,13.948,2.996,27.732,10.317,39.621l38.182,62.004l-97.038-57.261l-1.932-11.841
				l15.885-21.842l-20.807-249.164c-1.222-14.637,1.798-29.317,8.7-42.282L870,2803.603L915.928,2772.119z"/>
			
				<linearGradient id="SVGID_00000079488476361306038350000014788475234501747876_" gradientUnits="userSpaceOnUse" x1="-2125.1318" y1="3186.6494" x2="-2003.9457" y2="3186.6494" gradientTransform="matrix(-1 0 0 1 -1165.4333 0)">
				<stop  offset="0" style="stop-color:#A737D5"/>
				<stop  offset="1" style="stop-color:#EF497A"/>
			</linearGradient>
			<path style="fill:url(#SVGID_00000079488476361306038350000014788475234501747876_);" d="M951.51,3232.683h-30.967
				c-5.797,0-11.263-2.662-14.798-7.255c-9.654-12.544-29.655-37.017-39.219-37.656c-12.874-0.86-11.228,44.911-11.228,44.911
				h-7.217l-9.141-56.875c-2.3-14.31,4.816-28.487,17.667-35.192l0,0c0,0,2.943,21.765,18.901,31.393
				c15.958,9.627,64.939,44.104,64.939,44.104s5.999-0.856,12.585,0.335C962.804,3218.214,961.439,3232.683,951.51,3232.683z"/>
			
				<linearGradient id="SVGID_00000100342406759775432420000003249549116642902405_" gradientUnits="userSpaceOnUse" x1="-1876.8406" y1="3514.4121" x2="-1769.0326" y2="2254.4055" gradientTransform="matrix(-1 0 0 1 -1165.4333 0)">
				<stop  offset="0" style="stop-color:#F9B776"/>
				<stop  offset="1" style="stop-color:#F47960"/>
			</linearGradient>
			<path style="fill:url(#SVGID_00000100342406759775432420000003249549116642902405_);" d="M783.018,2790.438
				c0,0-128.638,244.014-149.087,299.726c-20.448,55.712-27.612,102.188-27.886,106.59c-0.429,6.876-8.982,13.473-32.56,13.473
				c-12.168,0-18.128-4.878-21.046-9.599c-2.489-4.028-2.617-9.068-0.52-13.313c7.441-15.059,31.055-63.184,39.801-85.012
				c10.442-26.061,32.903-144.165,45.221-185.228c12.319-41.064,26.242-85.607,79.885-126.637
				C716.826,2790.438,753.65,2754.372,783.018,2790.438z"/>
			
				<linearGradient id="SVGID_00000019674243471516275830000001362638362509222831_" gradientUnits="userSpaceOnUse" x1="924.7064" y1="2222.0554" x2="1267.5239" y2="1443.7651">
				<stop  offset="0" style="stop-color:#A737D5"/>
				<stop  offset="1" style="stop-color:#EF497A"/>
			</linearGradient>
			<path style="fill:url(#SVGID_00000019674243471516275830000001362638362509222831_);" d="M864.281,2390.61
				c33.183-140.609-50.879-220.135-50.879-220.135c53.041-50.914,149.682-74.082,149.682-74.082s92.217,67.419,81.277,120.188
				c-6.412,30.929-64.819,185.257-64.819,185.257S925.532,2427.398,864.281,2390.61z"/>
			
				<linearGradient id="SVGID_00000143587649752344813490000003544974537873774217_" gradientUnits="userSpaceOnUse" x1="-1794.1183" y1="2249.9099" x2="-2063.5825" y2="2681.0522" gradientTransform="matrix(-1 0 0 1 -1165.4333 0)">
				<stop  offset="0" style="stop-color:#FDF53F"/>
				<stop  offset="0.6645" style="stop-color:#E57A58"/>
				<stop  offset="1" style="stop-color:#D93C65"/>
			</linearGradient>
			<path style="fill:url(#SVGID_00000143587649752344813490000003544974537873774217_);" d="M790.71,2460.221
				c13.504-40.682,73.571-69.612,73.571-69.612c61.252,36.788,115.261,11.228,115.261,11.228s12.112,46.297,3.752,89.321
				c-8.359,43.024-60.809,319.531-60.809,319.531c-82.642,16.745-209.744-16.847-209.744-16.847
				C765.381,2700.385,777.205,2500.904,790.71,2460.221z"/>
			
				<linearGradient id="SVGID_00000078032883822489081580000004630463019599818906_" gradientUnits="userSpaceOnUse" x1="938.0523" y1="1849.0248" x2="903.053" y2="2190.78">
				<stop  offset="0" style="stop-color:#F9B776"/>
				<stop  offset="1" style="stop-color:#F47960"/>
			</linearGradient>
			<path style="fill:url(#SVGID_00000078032883822489081580000004630463019599818906_);" d="M902.798,2003.474l-26.979,121.181
				c-2.583,10.673,7.148,8.927,17.94,6.892c17.672-3.332,40.45-10.194,48.064-23.945c0.775-1.4,1.162-2.982,1.38-4.567l11.591-84.03
				c0.92-6.667-2.685-13.137-8.837-15.865l-22.366-9.918C914.981,1989.405,905.013,1994.318,902.798,2003.474z"/>
			<g>
				
					<linearGradient id="SVGID_00000094619315453372054680000011610058467721490834_" gradientUnits="userSpaceOnUse" x1="-2298.6667" y1="1761.8937" x2="-2122.0112" y2="1447.5061" gradientTransform="matrix(-0.9809 -0.1943 -0.1943 0.9809 -936.3432 -99.2406)">
					<stop  offset="0" style="stop-color:#F9B776"/>
					<stop  offset="1" style="stop-color:#F47960"/>
				</linearGradient>
				<path style="fill:url(#SVGID_00000094619315453372054680000011610058467721490834_);" d="M954.472,1893.005
					c0,0,28.721,19.442,41.063,68.954c12.341,49.512-7.715,67.272-28.274,66.184c-20.559-1.089-50.368-7.446-76.195-42.966
					C865.238,1949.656,916.835,1869.248,954.472,1893.005z"/>
				
					<linearGradient id="SVGID_00000111177231843485521590000017030858666251317396_" gradientUnits="userSpaceOnUse" x1="-3886.4214" y1="-2276.8684" x2="-3524.9492" y2="-1437.9784" gradientTransform="matrix(-0.9809 -0.1943 -0.1943 0.9809 -936.3432 -99.2406)">
					<stop  offset="0" style="stop-color:#2B3582"/>
					<stop  offset="1" style="stop-color:#150E42"/>
				</linearGradient>
				<path style="fill:url(#SVGID_00000111177231843485521590000017030858666251317396_);" d="M917.111,1965.206
					c0,0-10.523-70.946,48.379-60.094l11.91,12.4c0,0,28.831-32.469-3.074-57.013c-31.906-24.544-76.181-18.259-100.677,26.424
					c-24.496,44.683-33.386,76.081-12.854,103.846c20.532,27.766,35.975,3.953,35.975,3.953s-9.416-24.031-1.603-34.343
					c7.813-10.312,17.893,5.997,17.893,5.997L917.111,1965.206z"/>
				
					<linearGradient id="SVGID_00000064326594944570082990000011718924159853577393_" gradientUnits="userSpaceOnUse" x1="-2261.0635" y1="1783.0244" x2="-2084.4094" y2="1468.6395" gradientTransform="matrix(-0.9809 -0.1943 -0.1943 0.9809 -936.3432 -99.2406)">
					<stop  offset="0" style="stop-color:#F9B776"/>
					<stop  offset="1" style="stop-color:#F47960"/>
				</linearGradient>
				<path style="fill:url(#SVGID_00000064326594944570082990000011718924159853577393_);" d="M909.06,1971.281
					c0,0-5.195-36.501-23.837-26.066c-18.641,10.435,6.718,34.097,16.887,42.148L909.06,1971.281z"/>
			</g>
			<g>
				
					<linearGradient id="SVGID_00000162350896614173509770000001233049989577150872_" gradientUnits="userSpaceOnUse" x1="1007.4668" y1="2176.2222" x2="1345.1044" y2="1737.7053">
					<stop  offset="0" style="stop-color:#F9B776"/>
					<stop  offset="1" style="stop-color:#F47960"/>
				</linearGradient>
				<path style="fill:url(#SVGID_00000162350896614173509770000001233049989577150872_);" d="M1239.548,1895.419
					c0.398,4.289-15.55,7.253-20.626-11.031c1.396-7.937,3.874-42.697,9.959-48.096c32.415-28.761,90.216-61.116,90.216-61.116
					c6.464,9.87-2.014,16.37-2.014,16.37l-28.853,19.472c3.01,9.969,7.402,18.782,7.899,30.163
					c0.376,8.619-2.807,17.057-8.528,23.594c-5.743,6.562-13.473,15.033-20.441,21.465
					C1253.971,1898.414,1239.548,1895.419,1239.548,1895.419z"/>
				
					<linearGradient id="SVGID_00000067916608896972194830000008806371551978356925_" gradientUnits="userSpaceOnUse" x1="1263.4459" y1="1808.6779" x2="1294.3274" y2="1600.7426">
					<stop  offset="0" style="stop-color:#F9B776"/>
					<stop  offset="1" style="stop-color:#F47960"/>
				</linearGradient>
				<path style="fill:url(#SVGID_00000067916608896972194830000008806371551978356925_);" d="M1255.208,1881.238l-4.376-1.793
					c0.588-1.431,14.431-35.07,21.125-42.067c2.547-2.66,3.779-4.941,3.666-6.78c-0.063-1-0.554-1.989-1.497-2.995l-23.369,12.495
					l-10.313,16.151l-3.984-2.543l10.977-17.193l27.33-14.613l1.219,0.996c2.763,2.254,4.19,4.678,4.356,7.411
					c0.202,3.254-1.421,6.638-4.964,10.34C1270.329,1845.922,1259.106,1871.738,1255.208,1881.238z"/>
			</g>
			
				<linearGradient id="SVGID_00000157280730920891639890000000405294842869711008_" gradientUnits="userSpaceOnUse" x1="515.2437" y1="2368.4661" x2="874.7998" y2="2368.4661">
				<stop  offset="0" style="stop-color:#F9B776"/>
				<stop  offset="1" style="stop-color:#F47960"/>
			</linearGradient>
			<path style="fill:url(#SVGID_00000157280730920891639890000000405294842869711008_);" d="M813.402,2170.474
				c0,0-149.352,306.648-203.44,333.455c0,0-54.916,5.738-88.524,15.903c-8.455,2.557-8.172,14.563,0.35,16.887
				c23.405,6.383,62.182,11.718,97.72-7.574c0,0-19.09,28.615-7.954,39.761c0,0,25.453-30.216,34.998-39.761
				c8.403-8.404,161.349-175.147,225.649-275.709c5.195-8.125,1.59-32.271-2.018-41.214
				C861.877,2191.642,843.448,2158.782,813.402,2170.474z"/>
		</g>
		<g>
			<circle style="opacity:0.8;fill:#FFFFFF;" cx="1728.911" cy="1543.585" r="447.986"/>
			<g>
				
					<linearGradient id="SVGID_00000141438207458708483840000002507902291127780008_" gradientUnits="userSpaceOnUse" x1="2466.8066" y1="182.4734" x2="577.2396" y2="3294.7053">
					<stop  offset="0" style="stop-color:#CB236D"/>
					<stop  offset="1" style="stop-color:#4C246D"/>
				</linearGradient>
				<path style="fill:url(#SVGID_00000141438207458708483840000002507902291127780008_);" d="M1874.217,1382.305
					c0,76.432-61.961,158.947-138.394,158.947c-76.433,0-138.393-82.515-138.393-158.947c0-76.433,61.96-130.659,138.393-130.659
					C1812.256,1251.646,1874.217,1305.872,1874.217,1382.305z"/>
				
					<linearGradient id="SVGID_00000015337375625227272280000014952605249363277970_" gradientUnits="userSpaceOnUse" x1="2611.054" y1="270.0512" x2="721.4883" y2="3382.2808">
					<stop  offset="0" style="stop-color:#CB236D"/>
					<stop  offset="1" style="stop-color:#4C246D"/>
				</linearGradient>
				<path style="fill:url(#SVGID_00000015337375625227272280000014952605249363277970_);" d="M1564.076,1835.524h337.843
					c35.563,0,67.049-22.985,77.886-56.857l18.18-56.819c13.31-41.603-8.331-86.648-49.355-101.646
					c-137.489-50.27-279.658-43.821-425.294,4.639c-40.799,13.575-63.439,57.215-52.182,98.715l13.999,51.601
					C1494.818,1810.788,1527.159,1835.524,1564.076,1835.524z"/>
			</g>
		</g>
		
			<linearGradient id="SVGID_00000121977437119741620280000014274495184608182456_" gradientUnits="userSpaceOnUse" x1="1389.7957" y1="1177.1288" x2="1292.5251" y2="2112.7734" gradientTransform="matrix(0.9995 0.0321 -0.0321 0.9995 97.3296 47.5432)">
			<stop  offset="0" style="stop-color:#A737D5"/>
			<stop  offset="1" style="stop-color:#EF497A"/>
		</linearGradient>
		<path style="fill:url(#SVGID_00000121977437119741620280000014274495184608182456_);" d="M1308.511,2558.991
			c-0.639,19.898-17.238,35.859-37.096,35.649c-19.882-0.21-35.498-16.546-34.858-36.487c0.64-19.941,17.293-35.901,37.174-35.648
			C1293.588,2522.758,1309.15,2539.094,1308.511,2558.991z"/>
		
			<linearGradient id="SVGID_00000171713690961956362510000007925007227067445382_" gradientUnits="userSpaceOnUse" x1="1522.942" y1="1190.9642" x2="1425.6711" y2="2126.6135" gradientTransform="matrix(0.9995 0.0321 -0.0321 0.9995 97.3296 47.5432)">
			<stop  offset="0" style="stop-color:#A737D5"/>
			<stop  offset="1" style="stop-color:#EF497A"/>
		</linearGradient>
		<path style="fill:url(#SVGID_00000171713690961956362510000007925007227067445382_);" d="M1443.112,2560.559
			c-0.636,19.817-17.103,35.714-36.8,35.506c-19.721-0.208-35.208-16.477-34.571-36.337s17.158-35.756,36.877-35.505
			C1428.315,2524.473,1443.749,2540.741,1443.112,2560.559z"/>
		
			<linearGradient id="SVGID_00000014630428606792573240000013968536262711688119_" gradientUnits="userSpaceOnUse" x1="1665.1855" y1="1205.751" x2="1567.915" y2="2141.3962" gradientTransform="matrix(0.9995 0.0321 -0.0321 0.9995 97.3296 47.5432)">
			<stop  offset="0" style="stop-color:#A737D5"/>
			<stop  offset="1" style="stop-color:#EF497A"/>
		</linearGradient>
		<path style="fill:url(#SVGID_00000014630428606792573240000013968536262711688119_);" d="M1587.418,2562.938
			c-0.639,19.898-17.238,35.859-37.096,35.649c-19.882-0.21-35.498-16.546-34.858-36.487c0.64-19.941,17.293-35.901,37.174-35.648
			C1572.495,2526.705,1588.057,2543.04,1587.418,2562.938z"/>
		
			<linearGradient id="SVGID_00000114073726112155866330000017014858096119624335_" gradientUnits="userSpaceOnUse" x1="1947.1998" y1="1235.071" x2="1849.9288" y2="2170.7207" gradientTransform="matrix(0.9995 0.0321 -0.0321 0.9995 97.3296 47.5432)">
			<stop  offset="0" style="stop-color:#A737D5"/>
			<stop  offset="1" style="stop-color:#EF497A"/>
		</linearGradient>
		<path style="fill:url(#SVGID_00000114073726112155866330000017014858096119624335_);" d="M1872.832,2566.332
			c-0.636,19.817-17.103,35.714-36.8,35.506c-19.721-0.208-35.208-16.477-34.57-36.337c0.638-19.86,17.158-35.756,36.877-35.505
			C1858.035,2530.247,1873.469,2546.515,1872.832,2566.332z"/>
		
			<linearGradient id="SVGID_00000133526148119231549760000004086667035995045547_" gradientUnits="userSpaceOnUse" x1="2089.4431" y1="1249.8583" x2="1992.1727" y2="2185.5034" gradientTransform="matrix(0.9995 0.0321 -0.0321 0.9995 97.3296 47.5432)">
			<stop  offset="0" style="stop-color:#A737D5"/>
			<stop  offset="1" style="stop-color:#EF497A"/>
		</linearGradient>
		<path style="fill:url(#SVGID_00000133526148119231549760000004086667035995045547_);" d="M2017.138,2568.711
			c-0.639,19.898-17.238,35.859-37.096,35.649c-19.882-0.21-35.498-16.546-34.858-36.487c0.64-19.941,17.293-35.901,37.174-35.648
			C2002.215,2532.479,2017.777,2548.813,2017.138,2568.711z"/>
		
			<linearGradient id="SVGID_00000167359340608887551840000013291495268599311762_" gradientUnits="userSpaceOnUse" x1="1798.3314" y1="1219.5918" x2="1701.0604" y2="2155.2412" gradientTransform="matrix(0.9995 0.0321 -0.0321 0.9995 97.3296 47.5432)">
			<stop  offset="0" style="stop-color:#A737D5"/>
			<stop  offset="1" style="stop-color:#EF497A"/>
		</linearGradient>
		<path style="fill:url(#SVGID_00000167359340608887551840000013291495268599311762_);" d="M1722.02,2564.505
			c-0.636,19.817-17.103,35.714-36.8,35.506c-19.721-0.208-35.208-16.477-34.57-36.337c0.638-19.86,17.158-35.756,36.877-35.505
			C1707.222,2528.42,1722.656,2544.688,1722.02,2564.505z"/>
		<g>
			<g>
				<g>
					<path style="fill:#EAC4F9;" d="M463.82,1563.853c-1.344,0.053-2.659-0.65-3.302-1.901c-2.123-4.128-4.194-8.37-6.155-12.608
						c-0.806-1.741-0.014-3.792,1.768-4.582c4.311-1.94,4.971,2.901,10.715,14.072c0.879,1.706,0.173,3.789-1.576,4.649
						C464.805,1563.713,464.311,1563.833,463.82,1563.853z"/>
					<path style="fill:#EAC4F9;" d="M438.644,1508.604c-2.664-8.511-5.014-17.235-6.986-25.927
						c-0.423-1.866,0.781-3.716,2.691-4.133c5.212-1.105,3.22,2.939,11.068,28.024c0.572,1.828-0.48,3.764-2.351,4.326
						C441.169,1511.463,439.208,1510.409,438.644,1508.604z M424.752,1439.656c-0.851-8.915-1.362-18.031-1.496-26.777
						c-0.079-4.701,7.013-4.625,7.08-0.119c0.141,8.719,0.635,17.514,1.468,26.24c0.182,1.904-1.25,3.592-3.197,3.774
						C426.638,1442.955,424.932,1441.539,424.752,1439.656z M425.373,1369.372c1.011-8.846,2.394-17.767,4.113-26.518
						c0.89-4.511,7.837-3.195,6.956,1.292c-1.684,8.574-3.04,17.316-4.03,25.981
						C431.891,1374.687,424.852,1373.918,425.373,1369.372z M442.941,1305.012c-1.858-0.594-2.869-2.548-2.257-4.365
						c2.845-8.462,6.072-16.926,9.59-25.156c1.81-4.23,8.342-1.569,6.535,2.659c-3.447,8.063-6.61,16.357-9.399,24.648
						C446.801,1304.617,444.796,1305.609,442.941,1305.012z M471.345,1241.135c-1.695-0.951-2.277-3.067-1.3-4.725
						c4.552-7.728,9.469-15.373,14.616-22.725c2.655-3.774,8.491,0.119,5.843,3.904c-5.043,7.204-9.862,14.695-14.322,22.267
						C475.207,1241.512,473.04,1242.085,471.345,1241.135z M514.892,1185.079c-0.883,0.035-1.777-0.25-2.488-0.868
						c-1.462-1.267-1.595-3.455-0.294-4.887c6.059-6.672,12.454-13.187,19.007-19.366c1.41-1.329,3.649-1.292,5.008,0.084
						c1.356,1.376,1.313,3.566-0.095,4.895c-6.423,6.054-12.689,12.44-18.627,18.979
						C516.735,1184.65,515.821,1185.043,514.892,1185.079z M567.348,1137.975c-1.128,0.044-2.257-0.437-2.981-1.386
						c-1.168-1.532-0.841-3.701,0.727-4.845c7.303-5.326,14.914-10.437,22.621-15.19c1.652-1.024,3.841-0.542,4.883,1.078
						c1.041,1.615,0.544,3.754-1.112,4.775c-7.551,4.657-15.008,9.666-22.163,14.885
						C568.728,1137.724,568.037,1137.948,567.348,1137.975z M625.147,1100.281c-0.823-1.734-0.05-3.792,1.724-4.599
						c8.254-3.753,16.775-7.236,25.325-10.353c4.409-1.594,6.843,4.888,2.463,6.486c-8.375,3.052-16.722,6.466-24.81,10.143
						C628.08,1102.765,625.971,1102.018,625.147,1100.281z M862.896,1081.532c-25.776-6.63-30.055-4.535-29.089-9.7
						c0.35-1.883,2.194-3.126,4.118-2.792c8.961,1.579,17.972,3.53,26.785,5.797
						C869.233,1075.998,867.434,1082.694,862.896,1081.532z M692.229,1076.896c-0.442-1.861,0.743-3.723,2.649-4.158
						c8.862-2.025,17.925-3.738,26.938-5.088c4.633-0.693,5.688,6.15,1.062,6.843c-8.833,1.325-17.715,3.002-26.399,4.985
						C694.551,1079.916,692.667,1078.739,692.229,1076.896z M793.28,1070.972c-26.556-1.325-30.384,1.588-30.519-3.676
						c-0.086-3.339,3.835-3.736,3.451-3.554c9.131-0.242,18.365-0.135,27.44,0.315c1.954,0.097,3.453,1.725,3.35,3.633
						C796.903,1069.512,795.347,1071.048,793.28,1070.972z"/>
					<path style="fill:#EAC4F9;" d="M917.372,1100.485c-10.846-4.816-16.625-5.557-14.807-9.916c0.737-1.769,2.8-2.632,4.617-1.905
						c11.417,4.529,16.798,5.984,14.882,10.098C921.488,1099.995,919.148,1101.27,917.372,1100.485z"/>
				</g>
				<g>
					<path style="fill:#EAC4F9;" d="M1102.989,1296.661c-1.508,0.059-2.945-0.838-3.474-2.302
						c-1.552-4.296-3.211-8.607-4.932-12.815c-0.725-1.775,0.159-3.79,1.976-4.502c1.814-0.706,3.875,0.147,4.603,1.923
						c1.755,4.295,3.448,8.693,5.033,13.078c0.651,1.801-0.317,3.781-2.161,4.42
						C1103.689,1296.583,1103.336,1296.648,1102.989,1296.661z"/>
					<path style="fill:#EAC4F9;" d="M778.031,1750.79c-9.816,0.119-19.75-0.169-29.527-0.857c-1.951-0.136-3.416-1.794-3.271-3.701
						c0.409-5.372,4.002-2.018,32.724-2.364c1.956-0.025,3.558,1.506,3.578,3.418
						C781.571,1750.626,777.646,1750.968,778.031,1750.79z M821.845,1744.135c-0.798-5.319,3.598-2.858,31.42-9.239
						c1.906-0.447,3.81,0.719,4.253,2.578c0.444,1.862-0.741,3.725-2.645,4.162c-9.521,2.184-19.282,4.006-29.011,5.415
						C823.912,1747.331,822.127,1746.014,821.845,1744.135z M701.002,1743.366c-9.582-1.993-19.206-4.412-28.6-7.192
						c-1.87-0.554-2.926-2.486-2.355-4.317c1.606-5.159,4.347-1.103,32.44,4.736c1.913,0.398,3.13,2.236,2.721,4.106
						C704.796,1742.569,702.915,1743.76,701.002,1743.366z M899.604,1728.057c-1.474,0.058-2.885-0.795-3.442-2.216
						c-0.7-1.784,0.213-3.787,2.039-4.474c8.987-3.383,17.921-7.176,26.555-11.274c1.765-0.837,3.879-0.12,4.73,1.599
						c0.853,1.72,0.116,3.791-1.644,4.626c-8.814,4.184-17.934,8.056-27.107,11.508
						C900.364,1727.967,899.981,1728.042,899.604,1728.057z M967.632,1693.578c-1.19,0.047-2.376-0.495-3.087-1.535
						c-1.084-1.588-0.644-3.738,0.985-4.802c7.989-5.216,15.855-10.834,23.381-16.7c1.531-1.194,3.758-0.948,4.976,0.545
						c1.217,1.495,0.963,3.673-0.567,4.865c-7.68,5.987-15.709,11.72-23.864,17.046
						C968.893,1693.364,968.262,1693.553,967.632,1693.578z M1026.306,1645.354c-0.924,0.036-1.861-0.279-2.583-0.952
						c-1.414-1.318-1.464-3.51-0.113-4.894c6.638-6.8,13.065-13.96,19.104-21.283c1.231-1.488,3.457-1.724,4.98-0.527
						c1.522,1.198,1.76,3.378,0.531,4.867c-6.163,7.471-12.722,14.777-19.495,21.718
						C1028.068,1644.96,1027.193,1645.319,1026.306,1645.354z M1072.857,1585.793c-0.667,0.026-1.35-0.131-1.964-0.493
						c-1.674-0.986-2.211-3.113-1.199-4.751c4.97-8.047,9.652-16.402,13.917-24.831c0.867-1.715,2.989-2.423,4.744-1.575
						c1.753,0.844,2.472,2.918,1.603,4.634c-4.352,8.603-9.129,17.129-14.201,25.343
						C1075.115,1585.156,1074.008,1585.748,1072.857,1585.793z M1103.774,1517.576c-5.218-1.696-1.006-4.26,5.772-31.581
						c1.103-4.45,7.988-2.834,6.882,1.62c-2.313,9.321-5.062,18.664-8.174,27.766
						C1107.636,1517.188,1105.639,1518.182,1103.774,1517.576z M1120.632,1444.452c-5.475-0.527-1.952-3.895-1.489-32.02
						c0.076-4.56,7.159-4.488,7.082,0.097c-0.157,9.598-0.735,19.294-1.715,28.82
						C1124.31,1443.279,1122.532,1444.649,1120.632,1444.452z M1120.355,1369.585c-1.824,0.072-3.428-1.238-3.648-3.041
						c-1.149-9.369-2.705-18.765-4.628-27.922c-0.392-1.872,0.842-3.703,2.759-4.092c1.925-0.378,3.787,0.817,4.181,2.689
						c1.961,9.346,3.55,18.931,4.72,28.491c0.234,1.897-1.152,3.623-3.095,3.853
						C1120.546,1369.574,1120.45,1369.581,1120.355,1369.585z"/>
					<path style="fill:#EAC4F9;" d="M627.359,1719.441c-11.207-5.049-16.497-6.74-14.387-10.761c2.194-4.185,5.888-0.7,17.362,4.474
						c1.776,0.8,2.547,2.856,1.726,4.592C631.238,1719.482,629.133,1720.24,627.359,1719.441z"/>
				</g>
				<g>
					
						<linearGradient id="SVGID_00000066493709555935126580000001080085187995353521_" gradientUnits="userSpaceOnUse" x1="559.5876" y1="788.4115" x2="976.5296" y2="1983.6434">
						<stop  offset="0" style="stop-color:#A737D5"/>
						<stop  offset="1" style="stop-color:#EF497A"/>
					</linearGradient>
					<path style="fill:url(#SVGID_00000066493709555935126580000001080085187995353521_);" d="M628.711,1623.578l43.798-25.29
						c21.094,10.603,44.076,17.994,68.226,21.547c20.669,43.805,19.014,48.342,24.45,47.913l60.78-4.803
						c1.776-0.141,3.268-1.367,3.713-3.053l12.723-48.09c23.272-7.303,44.774-18.207,63.894-31.989l47.308,18.089
						c1.658,0.633,3.547,0.168,4.704-1.157l39.581-45.4c1.157-1.327,1.326-3.223,0.422-4.722l-25.794-42.765
						c10.886-20.637,18.487-43.114,22.167-66.726l46.567-19.917c1.634-0.698,2.635-2.332,2.495-4.068l-4.805-59.401
						c-0.14-1.736-1.392-3.192-3.117-3.625l-49.178-12.35c-7.428-22.734-18.545-43.731-32.612-62.396
						c17.198-45.571,21.535-47.44,17.416-50.869c-46.151-37.069-46.409-41.778-51.206-39.01l-43.798,25.289
						c-21.094-10.605-44.076-17.993-68.226-21.548c-20.656-43.779-19.011-48.341-24.449-47.914
						c-60.306,5.81-63.128,2.686-64.494,7.857l-12.723,48.091c-23.272,7.301-44.774,18.205-63.895,31.988
						c-46.024-16.524-48.443-21.026-52.011-16.932c-38.375,45.614-42.787,45.501-40.002,50.121l25.793,42.765
						c-10.887,20.637-18.487,43.115-22.167,66.726c-44.064,19.925-49.504,18.561-49.062,23.985
						c5.809,58.677,2.602,61.688,7.922,63.025l49.177,12.35c7.428,22.732,18.546,43.73,32.612,62.396
						c-17.139,45.417-21.554,47.421-17.416,50.869C623.656,1621.636,623.914,1626.346,628.711,1623.578z"/>
					<path style="fill:#FFFFFF;" d="M718.163,1423.254c-10.503-30.333,6.215-63.408,37.267-73.729
						c31.052-10.311,64.86,5.961,75.365,36.294c10.501,30.333-6.215,63.408-37.267,73.731l0,0
						C762.468,1469.874,728.663,1453.581,718.163,1423.254z M791.825,1454.634l0.035-0.001L791.825,1454.634z M758.834,1359.358
						c-25.205,8.376-39.364,35.265-30.607,60.551c8.625,24.913,36.394,38.293,61.895,29.809
						c25.502-8.477,39.233-35.641,30.607-60.553C812.091,1364.215,784.289,1350.891,758.834,1359.358z"/>
					<path style="fill:#FFFFFF;" d="M781.023,1552.382L781.023,1552.382c-8.779,0.345-17.57-0.041-26.213-1.16
						c-2.599-0.336-4.504-2.455-4.603-4.93c-0.012-0.296,0.003-0.596,0.044-0.898c0.39-2.843,3.073-4.842,5.971-4.467
						c9.941,1.285,20.098,1.529,30.189,0.738l0,0c76.008-6.008,133.43-69.851,130.53-143.656c-0.074-1.885-0.189-3.776-0.341-5.673
						c-6.202-76.644-74.714-133.114-152.541-126.984c-77.712,6.141-136.337,72.881-130.189,149.329
						c3.685,45.501,26.566,67.395,26.753,72.16c0.203,5.15-6.587,7.411-9.635,3.234c-16.652-22.82-26.898-50.698-28.076-80.656
						c-5.078-129.266,150.643-203.188,251.276-119.412c30.97,25.78,49.793,61.824,53,101.494c0.167,2.052,0.29,4.102,0.372,6.149
						c1.477,37.486-11.32,73.629-36.383,102.378c-26.432,30.316-63.343,48.779-103.931,51.987
						C785.175,1552.178,783.098,1552.3,781.023,1552.382z"/>
				</g>
			</g>
			<g>
				
					<linearGradient id="SVGID_00000101806820553915695390000009794570459102908849_" gradientUnits="userSpaceOnUse" x1="1107.2864" y1="483.3654" x2="1215.8762" y2="1006.5716" gradientTransform="matrix(0.9932 -0.1161 0.1161 0.9932 -325.4781 -181.8069)">
					<stop  offset="0" style="stop-color:#A737D5"/>
					<stop  offset="1" style="stop-color:#EF497A"/>
				</linearGradient>
				<path style="fill:url(#SVGID_00000101806820553915695390000009794570459102908849_);" d="M1072.681,1156.034
					c12.173,5.093,25.247,8.281,38.792,9.244l13.319,24.899c1.477,2.764,3.314,0.468,35.879-4.173
					c2.988-0.481,1.484-2.733,6.778-29.709c12.564-5.154,23.982-12.271,33.951-20.917l27.042,8.194
					c3.005,0.907,2.674-2.013,22.419-28.321c0.581-0.803,0.588-1.885,0.019-2.695l-16.244-23.12
					c5.092-12.173,8.28-25.246,9.243-38.792c23.529-13.224,26.584-12.69,26.097-15.734c-5.9-33.042-4.258-34.859-7.263-35.383
					l-27.816-4.859c-5.153-12.564-12.271-23.983-20.917-33.951l8.194-27.042c0.909-2.998-2.012-2.673-28.321-22.419
					c-2.44-1.769-2.882,0.815-25.815,16.225c-12.173-5.093-25.246-8.281-38.792-9.244l-13.319-24.899
					c-1.48-2.766-3.314-0.468-35.88,4.173c-2.972,0.476-1.457,2.597-6.777,29.709c-12.564,5.152-23.984,12.271-33.952,20.917
					l-27.041-8.194c-0.948-0.288-1.974,0.059-2.554,0.861l-19.865,27.46c-0.58,0.802-0.588,1.885-0.019,2.696l16.244,23.119
					c-5.093,12.173-8.28,25.246-9.243,38.792c-23.529,13.224-26.587,12.691-26.096,15.734c5.897,33.029,4.255,34.857,7.263,35.383
					l27.816,4.859c5.153,12.563,12.271,23.983,20.917,33.951c-7.287,25.988-9.839,27.782-7.333,29.596l27.46,19.865
					C1049.321,1174.035,1049.864,1171.365,1072.681,1156.034z"/>
				<g>
					<path style="fill:#FFFFFF;" d="M1087.875,1055.738c-7.725-17.955,0.548-38.737,18.506-46.464
						c17.948-7.725,38.736,0.548,46.462,18.503c7.708,17.912-0.593,38.756-18.504,46.466l0,0
						C1116.425,1081.949,1095.586,1073.652,1087.875,1055.738z M1132.255,1069.402l0.034-0.001L1132.255,1069.402z
						 M1097.556,1051.57c5.415,12.574,20.049,18.398,32.615,12.992l0,0c20.189-8.691,19.867-37.704-0.626-45.867
						C1109.143,1010.571,1088.811,1031.249,1097.556,1051.57z"/>
					<g>
						<path style="fill:#EAC4F9;" d="M986.203,1169.463c-3.276-3.437-6.46-7.053-9.466-10.748c-1.225-1.506-0.998-3.717,0.508-4.942
							c3.788-3.082,5.602,1.977,14.045,10.844c1.339,1.405,1.284,3.629-0.121,4.967
							C989.771,1170.917,987.547,1170.874,986.203,1169.463z"/>
						<path style="fill:#EAC4F9;" d="M951.968,1118.806c-3.88-8.484-7.293-17.636-9.971-27.169c-1.26-4.485,5.512-6.361,6.765-1.901
							c6.939,24.7,13.21,28.365,7.861,30.807C954.843,1121.353,952.77,1120.561,951.968,1118.806z M938.726,1048.614
							c-1.94,0.035-3.541-1.509-3.578-3.449c-0.174-9.623,0.412-19.345,1.746-28.897c0.647-4.601,7.603-3.634,6.961,0.973
							c-1.284,9.188-1.85,18.539-1.68,27.796C942.236,1048.443,938.343,1048.797,938.726,1048.614z M952.598,975.817
							c-0.492,0.019-0.995-0.064-1.478-0.263c-1.794-0.742-2.646-2.796-1.906-4.59c3.681-8.906,8.089-17.588,13.102-25.805
							c1.01-1.654,3.177-2.18,4.828-1.17c1.657,1.01,2.181,3.173,1.17,4.828c-4.823,7.907-9.063,16.262-12.604,24.831
							C955.167,974.957,953.927,975.765,952.598,975.817z M994.225,914.538c-0.965,0.038-1.942-0.32-2.665-1.07
							c-1.349-1.394-1.312-3.619,0.084-4.967c6.924-6.694,14.437-12.89,22.332-18.416c1.593-1.112,3.781-0.726,4.895,0.865
							c1.111,1.589,0.725,3.78-0.865,4.893c-7.593,5.314-14.82,11.272-21.479,17.71
							C995.882,914.178,995.057,914.506,994.225,914.538z M1053.474,872.759c-0.68-1.817,0.24-3.843,2.057-4.524
							c9.049-3.39,18.406-6.086,27.816-8.015c4.533-0.951,5.977,5.946,1.411,6.884c-9.051,1.855-18.055,4.449-26.76,7.712
							C1056.134,875.507,1054.143,874.539,1053.474,872.759z"/>
						<path style="fill:#EAC4F9;" d="M1143.696,865.053c-12.777-1.7-17.287-0.25-17.029-4.986c0.106-1.937,1.716-3.431,3.7-3.316
							c4.726,0.257,9.522,0.707,14.256,1.337c1.923,0.256,3.275,2.022,3.019,3.947
							C1147.391,863.928,1145.66,865.306,1143.696,865.053z"/>
					</g>
					<g>
						<path style="fill:#EAC4F9;" d="M1267.557,941.25c-7.287-10.692-11.354-13.05-7.65-16.017c1.516-1.215,3.725-0.969,4.938,0.544
							c2.963,3.695,5.829,7.569,8.517,11.515c1.093,1.604,0.679,3.79-0.924,4.882
							C1270.842,943.265,1268.651,942.856,1267.557,941.25z"/>
						<path style="fill:#EAC4F9;" d="M1144.157,1221.931c-0.883-5.769,5.412-2.571,29.619-10.209
							c4.417-1.404,6.559,5.298,2.114,6.702c-9.052,2.856-18.383,5.026-27.73,6.45
							C1146.274,1225.167,1144.452,1223.875,1144.157,1221.931z M1213.041,1198.061c-1.018-1.651-0.507-3.816,1.146-4.835
							c21.782-13.446,23.256-20.204,27.069-15.756c1.261,1.475,1.089,3.693-0.384,4.955c-7.191,6.154-14.926,11.802-22.995,16.782
							C1216.223,1200.225,1214.062,1199.712,1213.041,1198.061z M1267.013,1149.095c-4.789-3.362,1.841-5.628,13.102-28.453
							c2.06-4.164,8.362-1.062,6.303,3.11c-4.198,8.504-9.08,16.743-14.512,24.484
							C1270.794,1149.823,1268.602,1150.212,1267.013,1149.095z M1297.393,1082.834c-5.736-1.222-0.498-5.911,0.922-31.313
							c0.257-4.635,7.275-4.255,7.017,0.39c-0.528,9.45-1.796,18.943-3.77,28.218
							C1301.156,1082.031,1299.287,1083.234,1297.393,1082.834z M1295.205,1007.198c-4.979-25.089-10.804-28.869-5.288-30.878
							c1.825-0.667,3.839,0.273,4.505,2.096c3.256,8.929,5.839,18.151,7.676,27.416c0.377,1.903-0.859,3.753-2.763,4.13
							C1297.435,1010.337,1295.583,1009.104,1295.205,1007.198z"/>
						<path style="fill:#EAC4F9;" d="M1101.809,1226.027c-4.734-0.482-9.504-1.153-14.178-1.996
							c-1.909-0.345-3.177-2.172-2.833-4.083c0.869-4.807,5.519-2.153,17.722-0.913c1.93,0.197,3.336,1.921,3.141,3.851
							C1105.461,1224.845,1103.704,1226.223,1101.809,1226.027z"/>
					</g>
					<path style="fill:#FFFFFF;" d="M1116.23,1128.093c-3.33-0.161-5.337-2.811-5.191-5.554c0.156-2.908,2.664-5.144,5.544-4.982
						c5.396,0.287,10.87-0.003,16.273-0.87c1.077-0.395,29.791-3.028,49.867-30.698c39.765-54.975-7.051-131.163-74.114-120.392
						c-38.584,6.194-65.838,40.391-64.336,78.506c1.509,38.387,25.943,46.316,17.2,53.657c-2.227,1.875-5.55,1.587-7.425-0.642
						c-10.106-12.016-16.768-26.601-19.267-42.182c-7.602-47.308,24.694-92.127,72.159-99.746
						c51.073-8.201,98.721,29.992,100.794,82.707c1.676,42.516-28.462,82.017-73.209,89.198h-0.002
						C1128.468,1128.064,1122.311,1128.402,1116.23,1128.093z"/>
				</g>
			</g>
		</g>
	</g>
</g>
</svg>
