<svg width="168" height="77" viewBox="0 0 168 77" fill="none" xmlns="http://www.w3.org/2000/svg">
<mask id="path-1-outside-1_197_120" maskUnits="userSpaceOnUse" x="3" y="15" width="165" height="49" fill="black">
<rect fill="white" x="3" y="15" width="165" height="49"/>
<path d="M4.16 62V16.24H20.544C33.792 16.24 39.424 26.608 39.424 39.344C39.424 52.144 33.344 62 20.096 62H4.16ZM6.08 18.032V60.208H20.032C31.104 60.208 37.376 52.272 37.376 39.344C37.376 26.416 31.552 18.032 20.48 18.032H6.08ZM59.6685 61.04C67.2845 61.04 70.3565 55.664 71.1245 52.144H73.0445C71.6365 58.16 67.3485 62.704 59.6685 62.704C50.5165 62.704 44.7565 55.92 44.7565 45.68C44.7565 34.992 50.7725 28.656 59.6045 28.656C69.1405 28.656 73.4925 35.76 73.4925 45.36H46.6765V45.744C46.6765 54.128 51.0285 61.04 59.6685 61.04ZM59.6045 30.32C51.4765 30.32 46.8685 36.72 46.6765 43.696H71.5725C71.5725 37.104 67.8605 30.32 59.6045 30.32ZM75.6925 29.104H77.6765L89.1965 59.44H89.2605L100.844 29.104H102.828L90.2845 62H88.1725L75.6925 29.104ZM137.934 29.104H140.302L151.246 43.824H151.374L162.318 29.104H164.686L152.59 45.168L165.774 62H163.342L151.374 46.384H151.246L139.342 62H136.91L150.03 45.168L137.934 29.104Z"/>
</mask>
<path d="M4.16 62V16.24H20.544C33.792 16.24 39.424 26.608 39.424 39.344C39.424 52.144 33.344 62 20.096 62H4.16ZM6.08 18.032V60.208H20.032C31.104 60.208 37.376 52.272 37.376 39.344C37.376 26.416 31.552 18.032 20.48 18.032H6.08ZM59.6685 61.04C67.2845 61.04 70.3565 55.664 71.1245 52.144H73.0445C71.6365 58.16 67.3485 62.704 59.6685 62.704C50.5165 62.704 44.7565 55.92 44.7565 45.68C44.7565 34.992 50.7725 28.656 59.6045 28.656C69.1405 28.656 73.4925 35.76 73.4925 45.36H46.6765V45.744C46.6765 54.128 51.0285 61.04 59.6685 61.04ZM59.6045 30.32C51.4765 30.32 46.8685 36.72 46.6765 43.696H71.5725C71.5725 37.104 67.8605 30.32 59.6045 30.32ZM75.6925 29.104H77.6765L89.1965 59.44H89.2605L100.844 29.104H102.828L90.2845 62H88.1725L75.6925 29.104ZM137.934 29.104H140.302L151.246 43.824H151.374L162.318 29.104H164.686L152.59 45.168L165.774 62H163.342L151.374 46.384H151.246L139.342 62H136.91L150.03 45.168L137.934 29.104Z" fill="white"/>
<path d="M4.16 62H3.41V62.75H4.16V62ZM4.16 16.24V15.49H3.41V16.24H4.16ZM6.08 18.032V17.282H5.33V18.032H6.08ZM6.08 60.208H5.33V60.958H6.08V60.208ZM4.91 62V16.24H3.41V62H4.91ZM4.16 16.99H20.544V15.49H4.16V16.99ZM20.544 16.99C26.9448 16.99 31.4333 19.4804 34.3469 23.4591C37.2849 27.4711 38.674 33.0714 38.674 39.344H40.174C40.174 32.8806 38.7471 26.9289 35.5571 22.5729C32.3427 18.1835 27.3912 15.49 20.544 15.49V16.99ZM38.674 39.344C38.674 45.638 37.1777 51.1194 34.1371 55.0102C31.1172 58.8743 26.513 61.25 20.096 61.25V62.75C26.927 62.75 31.9868 60.1977 35.319 55.9338C38.6303 51.6966 40.174 45.85 40.174 39.344H38.674ZM20.096 61.25H4.16V62.75H20.096V61.25ZM5.33 18.032V60.208H6.83V18.032H5.33ZM6.08 60.958H20.032V59.458H6.08V60.958ZM20.032 60.958C25.7624 60.958 30.3233 58.8954 33.436 55.0996C36.5319 51.324 38.126 45.9189 38.126 39.344H36.626C36.626 45.6971 35.0841 50.724 32.2761 54.1484C29.4847 57.5526 25.3736 59.458 20.032 59.458V60.958ZM38.126 39.344C38.126 32.7806 36.6493 27.271 33.6757 23.3843C30.6807 19.4697 26.2272 17.282 20.48 17.282V18.782C25.8048 18.782 29.7993 20.7863 32.4843 24.2957C35.1907 27.833 36.626 32.9794 36.626 39.344H38.126ZM20.48 17.282H6.08V18.782H20.48V17.282ZM71.1245 52.144V51.394H70.5205L70.3917 51.9841L71.1245 52.144ZM73.0445 52.144L73.7748 52.3149L73.9903 51.394H73.0445V52.144ZM73.4925 45.36V46.11H74.2425V45.36H73.4925ZM46.6765 45.36V44.61H45.9265V45.36H46.6765ZM46.6765 43.696L45.9268 43.6754L45.9056 44.446H46.6765V43.696ZM71.5725 43.696V44.446H72.3225V43.696H71.5725ZM59.6685 61.79C63.6719 61.79 66.533 60.3696 68.4901 58.447C70.4304 56.5409 71.4488 54.1759 71.8573 52.3039L70.3917 51.9841C70.0322 53.6321 69.1306 55.7151 67.4389 57.377C65.764 59.0224 63.2811 60.29 59.6685 60.29V61.79ZM71.1245 52.894H73.0445V51.394H71.1245V52.894ZM72.3142 51.9731C71.6387 54.8595 70.2837 57.3463 68.2211 59.11C66.1653 60.8678 63.3526 61.954 59.6685 61.954V63.454C63.6644 63.454 66.8357 62.2682 69.1959 60.25C71.5493 58.2377 73.0423 55.4445 73.7748 52.3149L72.3142 51.9731ZM59.6685 61.954C55.2907 61.954 51.7763 60.3384 49.3468 57.5403C46.9076 54.731 45.5065 50.6639 45.5065 45.68H44.0065C44.0065 50.9361 45.4854 55.381 48.2142 58.5237C50.9527 61.6776 54.8943 63.454 59.6685 63.454V61.954ZM45.5065 45.68C45.5065 40.4735 46.9706 36.4108 49.4279 33.6596C51.8779 30.9165 55.3773 29.406 59.6045 29.406V27.906C54.9997 27.906 51.0751 29.5635 48.3091 32.6604C45.5504 35.7491 44.0065 40.1985 44.0065 45.68H45.5065ZM59.6045 29.406C64.1642 29.406 67.4056 31.0924 69.5291 33.8641C71.6752 36.6653 72.7425 40.6593 72.7425 45.36H74.2425C74.2425 40.4607 73.1338 36.1027 70.7199 32.9519C68.2834 29.7716 64.5808 27.906 59.6045 27.906V29.406ZM73.4925 44.61H46.6765V46.11H73.4925V44.61ZM45.9265 45.36V45.744H47.4265V45.36H45.9265ZM45.9265 45.744C45.9265 50.0554 47.0444 54.0565 49.3414 56.9976C51.6559 59.9612 55.1247 61.79 59.6685 61.79V60.29C55.5723 60.29 52.5451 58.6628 50.5236 56.0744C48.4846 53.4635 47.4265 49.8166 47.4265 45.744H45.9265ZM59.6045 29.57C50.9715 29.57 46.127 36.4 45.9268 43.6754L47.4262 43.7166C47.61 37.04 51.9815 31.07 59.6045 31.07V29.57ZM46.6765 44.446H71.5725V42.946H46.6765V44.446ZM72.3225 43.696C72.3225 40.2713 71.3601 36.7544 69.2765 34.0755C67.1748 31.3733 63.9645 29.57 59.6045 29.57V31.07C63.5005 31.07 66.2742 32.6587 68.0925 34.9965C69.9289 37.3576 70.8225 40.5287 70.8225 43.696H72.3225ZM75.6925 29.104V28.354H74.6058L74.9913 29.37L75.6925 29.104ZM77.6765 29.104L78.3776 28.8377L78.1939 28.354H77.6765V29.104ZM89.1965 59.44L88.4954 59.7063L88.6791 60.19H89.1965V59.44ZM89.2605 59.44V60.19H89.7769L89.9612 59.7075L89.2605 59.44ZM100.844 29.104V28.354H100.328L100.144 28.8365L100.844 29.104ZM102.828 29.104L103.529 29.3712L103.917 28.354H102.828V29.104ZM90.2845 62V62.75H90.8012L90.9853 62.2672L90.2845 62ZM88.1725 62L87.4713 62.266L87.6549 62.75H88.1725V62ZM75.6925 29.854H77.6765V28.354H75.6925V29.854ZM76.9754 29.3703L88.4954 59.7063L89.8976 59.1737L78.3776 28.8377L76.9754 29.3703ZM89.1965 60.19H89.2605V58.69H89.1965V60.19ZM89.9612 59.7075L101.545 29.3715L100.144 28.8365L88.5598 59.1725L89.9612 59.7075ZM100.844 29.854H102.828V28.354H100.844V29.854ZM102.128 28.8368L89.5837 61.7328L90.9853 62.2672L103.529 29.3712L102.128 28.8368ZM90.2845 61.25H88.1725V62.75H90.2845V61.25ZM88.8737 61.734L76.3937 28.838L74.9913 29.37L87.4713 62.266L88.8737 61.734ZM137.934 29.104V28.354H136.431L137.335 29.5551L137.934 29.104ZM140.302 29.104L140.904 28.6565L140.679 28.354H140.302V29.104ZM151.246 43.824L150.645 44.2715L150.87 44.574H151.246V43.824ZM151.374 43.824V44.574H151.751L151.976 44.2715L151.374 43.824ZM162.318 29.104V28.354H161.942L161.717 28.6565L162.318 29.104ZM164.686 29.104L165.286 29.5551L166.19 28.354H164.686V29.104ZM152.59 45.168L151.991 44.7169L151.645 45.177L152 45.6305L152.59 45.168ZM165.774 62V62.75H167.315L166.365 61.5375L165.774 62ZM163.342 62L162.747 62.4562L162.972 62.75H163.342V62ZM151.374 46.384L151.97 45.9278L151.745 45.634H151.374V46.384ZM151.246 46.384V45.634H150.875L150.65 45.9293L151.246 46.384ZM139.342 62V62.75H139.714L139.939 62.4547L139.342 62ZM136.91 62L136.319 61.5389L135.375 62.75H136.91V62ZM150.03 45.168L150.622 45.6291L150.975 45.1759L150.63 44.7169L150.03 45.168ZM137.934 29.854H140.302V28.354H137.934V29.854ZM139.701 29.5515L150.645 44.2715L151.848 43.3765L140.904 28.6565L139.701 29.5515ZM151.246 44.574H151.374V43.074H151.246V44.574ZM151.976 44.2715L162.92 29.5515L161.717 28.6565L150.773 43.3765L151.976 44.2715ZM162.318 29.854H164.686V28.354H162.318V29.854ZM164.087 28.6529L151.991 44.7169L153.19 45.6191L165.286 29.5551L164.087 28.6529ZM152 45.6305L165.184 62.4625L166.365 61.5375L153.181 44.7055L152 45.6305ZM165.774 61.25H163.342V62.75H165.774V61.25ZM163.938 61.5438L151.97 45.9278L150.779 46.8402L162.747 62.4562L163.938 61.5438ZM151.374 45.634H151.246V47.134H151.374V45.634ZM150.65 45.9293L138.746 61.5453L139.939 62.4547L151.843 46.8387L150.65 45.9293ZM139.342 61.25H136.91V62.75H139.342V61.25ZM137.502 62.4611L150.622 45.6291L149.439 44.7069L136.319 61.5389L137.502 62.4611ZM150.63 44.7169L138.534 28.6529L137.335 29.5551L149.431 45.6191L150.63 44.7169Z" fill="white" mask="url(#path-1-outside-1_197_120)"/>
<path d="M120.071 62.8276C111.342 62.8276 107.308 57.6931 107.308 52.4118C107.308 45.8102 112.002 41.996 115.23 39.2087V39.062C112.002 36.2746 107.308 32.5337 107.308 25.9322C107.308 20.6509 111.342 15.5164 120.071 15.5164C128.726 15.5164 132.761 20.6509 132.761 25.9322C132.761 32.5337 127.333 36.2746 124.105 39.062V39.2087C127.333 41.996 132.761 45.8102 132.761 52.4118C132.761 57.6931 128.726 62.8276 120.071 62.8276ZM126.819 51.1649C126.819 47.1306 122.565 44.1965 119.998 42.1427C117.43 44.1965 113.103 47.1306 113.103 51.1649C113.103 54.539 115.23 56.9596 119.998 56.9596C124.765 56.9596 126.819 54.539 126.819 51.1649ZM126.819 27.1791C126.819 23.805 124.765 21.3844 119.998 21.3844C115.23 21.3844 113.103 23.805 113.103 27.1791C113.103 31.2134 117.43 34.1475 119.998 36.2013C122.565 34.1475 126.819 31.2134 126.819 27.1791Z" fill="white"/>
</svg>
