<svg width="420" height="78" viewBox="0 0 420 78" fill="none" xmlns="http://www.w3.org/2000/svg">
    <path d="M221.032 17.2H231.4V62H221.032V17.2ZM200.68 62H190.312V17.2H200.68V62ZM221.8 43.632H199.912V34.864H221.8V43.632ZM255.824 62.512C252.965 62.512 250.405 61.9573 248.144 60.848C245.925 59.7387 244.197 58.0533 242.96 55.792C241.722 53.488 241.104 50.5653 241.104 47.024V27.568H251.088V45.552C251.088 48.4107 251.685 50.5227 252.88 51.888C254.117 53.2107 255.845 53.872 258.064 53.872C259.6 53.872 260.965 53.552 262.16 52.912C263.354 52.2293 264.293 51.2053 264.976 49.84C265.658 48.432 266 46.6827 266 44.592V27.568H275.984V62H266.512V52.528L268.24 55.28C267.088 57.6693 265.381 59.4827 263.12 60.72C260.901 61.9147 258.469 62.512 255.824 62.512ZM306.161 27.056C308.892 27.056 311.324 27.6107 313.457 28.72C315.633 29.7867 317.34 31.4507 318.577 33.712C319.814 35.9307 320.433 38.7893 320.433 42.288V62H310.449V43.824C310.449 41.0507 309.83 39.0027 308.593 37.68C307.398 36.3573 305.692 35.696 303.473 35.696C301.894 35.696 300.465 36.0373 299.185 36.72C297.948 37.36 296.966 38.3627 296.241 39.728C295.558 41.0933 295.217 42.8427 295.217 44.976V62H285.233V27.568H294.769V37.104L292.977 34.224C294.214 31.92 295.985 30.1493 298.289 28.912C300.593 27.6747 303.217 27.056 306.161 27.056ZM343.563 62.512C339.51 62.512 336.352 61.488 334.091 59.44C331.83 57.3493 330.699 54.256 330.699 50.16V19.952H340.683V50.032C340.683 51.4827 341.067 52.6133 341.835 53.424C342.603 54.192 343.648 54.576 344.971 54.576C346.55 54.576 347.894 54.1493 349.003 53.296L351.691 60.336C350.667 61.0613 349.43 61.616 347.979 62C346.571 62.3413 345.099 62.512 343.563 62.512ZM325.387 36.016V28.336H349.259V36.016H325.387ZM373.321 62.512C369.396 62.512 365.94 61.744 362.953 60.208C360.009 58.672 357.726 56.5813 356.105 53.936C354.484 51.248 353.673 48.1973 353.673 44.784C353.673 41.328 354.462 38.2773 356.041 35.632C357.662 32.944 359.86 30.8533 362.633 29.36C365.406 27.824 368.542 27.056 372.041 27.056C375.412 27.056 378.441 27.7813 381.129 29.232C383.86 30.64 386.014 32.688 387.593 35.376C389.172 38.0213 389.961 41.2 389.961 44.912C389.961 45.296 389.94 45.744 389.897 46.256C389.854 46.7253 389.812 47.1733 389.769 47.6H361.801V41.776H384.521L380.681 43.504C380.681 41.712 380.318 40.1547 379.593 38.832C378.868 37.5093 377.865 36.4853 376.585 35.76C375.305 34.992 373.812 34.608 372.105 34.608C370.398 34.608 368.884 34.992 367.561 35.76C366.281 36.4853 365.278 37.5307 364.553 38.896C363.828 40.2187 363.465 41.7973 363.465 43.632V45.168C363.465 47.0453 363.87 48.7093 364.681 50.16C365.534 51.568 366.708 52.656 368.201 53.424C369.737 54.1493 371.529 54.512 373.577 54.512C375.412 54.512 377.012 54.2347 378.377 53.68C379.785 53.1253 381.065 52.2933 382.217 51.184L387.529 56.944C385.95 58.736 383.966 60.1227 381.577 61.104C379.188 62.0427 376.436 62.512 373.321 62.512ZM396.608 62V27.568H406.144V37.296L404.8 34.48C405.824 32.048 407.467 30.2133 409.728 28.976C411.989 27.696 414.741 27.056 417.984 27.056V36.272C417.557 36.2293 417.173 36.208 416.832 36.208C416.491 36.1653 416.128 36.144 415.744 36.144C413.013 36.144 410.795 36.9333 409.088 38.512C407.424 40.048 406.592 42.4587 406.592 45.744V62H396.608Z" fill="#6366F1"/>
    <path d="M13.056 62L21.376 20.144H5.248L5.888 17.2H41.408L40.832 20.144H24.704L16.32 62H13.056ZM38.5795 62L45.2355 28.592H48.3715L46.3235 38.64L45.9395 37.488C47.3902 34.4587 49.3528 32.176 51.8275 30.64C54.3022 29.104 57.4168 28.336 61.1715 28.336L60.5955 31.472C60.4248 31.472 60.2542 31.472 60.0835 31.472C59.9128 31.4293 59.7422 31.408 59.5715 31.408C55.8168 31.408 52.7022 32.5387 50.2275 34.8C47.7955 37.0187 46.1315 40.368 45.2355 44.848L41.7795 62H38.5795ZM77.164 62.256C74.1773 62.256 71.5747 61.7013 69.356 60.592C67.1373 59.44 65.4093 57.8187 64.172 55.728C62.9773 53.6373 62.38 51.184 62.38 48.368C62.38 44.528 63.1907 41.1147 64.812 38.128C66.476 35.0987 68.7373 32.7093 71.596 30.96C74.4973 29.2107 77.804 28.336 81.516 28.336C84.5453 28.336 87.148 28.912 89.324 30.064C91.5427 31.1733 93.2493 32.7733 94.444 34.864C95.6813 36.912 96.3 39.3653 96.3 42.224C96.3 46.064 95.468 49.4987 93.804 52.528C92.1827 55.5147 89.9213 57.8827 87.02 59.632C84.1613 61.3813 80.876 62.256 77.164 62.256ZM77.42 59.376C80.4493 59.376 83.1373 58.6507 85.484 57.2C87.8307 55.7493 89.6867 53.744 91.052 51.184C92.4173 48.5813 93.1 45.6587 93.1 42.416C93.1 38.832 92.0547 36.08 89.964 34.16C87.916 32.1973 85.0147 31.216 81.26 31.216C78.2733 31.216 75.5853 31.9627 73.196 33.456C70.8493 34.9067 68.9933 36.912 67.628 39.472C66.2627 42.032 65.58 44.9333 65.58 48.176C65.58 51.7173 66.604 54.4693 68.652 56.432C70.7427 58.3947 73.6653 59.376 77.42 59.376ZM116.852 62.256C113.865 62.256 111.262 61.7013 109.044 60.592C106.825 59.44 105.097 57.8187 103.86 55.728C102.665 53.6373 102.068 51.184 102.068 48.368C102.068 44.528 102.878 41.1147 104.5 38.128C106.164 35.0987 108.425 32.7093 111.284 30.96C114.185 29.2107 117.492 28.336 121.204 28.336C124.233 28.336 126.836 28.912 129.012 30.064C131.23 31.1733 132.937 32.7733 134.132 34.864C135.369 36.912 135.988 39.3653 135.988 42.224C135.988 46.064 135.156 49.4987 133.492 52.528C131.87 55.5147 129.609 57.8827 126.708 59.632C123.849 61.3813 120.564 62.256 116.852 62.256ZM117.108 59.376C120.137 59.376 122.825 58.6507 125.172 57.2C127.518 55.7493 129.374 53.744 130.74 51.184C132.105 48.5813 132.788 45.6587 132.788 42.416C132.788 38.832 131.742 36.08 129.652 34.16C127.604 32.1973 124.702 31.216 120.948 31.216C117.961 31.216 115.273 31.9627 112.884 33.456C110.537 34.9067 108.681 36.912 107.316 39.472C105.95 42.032 105.268 44.9333 105.268 48.176C105.268 51.7173 106.292 54.4693 108.34 56.432C110.43 58.3947 113.353 59.376 117.108 59.376ZM160.315 62.256C157.414 62.256 154.918 61.744 152.827 60.72C150.779 59.6533 149.222 58.1387 148.155 56.176C147.088 54.1707 146.534 51.76 146.491 48.944C146.491 44.9333 147.238 41.392 148.731 38.32C150.267 35.2053 152.4 32.7733 155.131 31.024C157.904 29.232 161.126 28.336 164.795 28.336C167.696 28.336 170.214 28.8907 172.347 30C174.523 31.1093 176.208 32.7093 177.403 34.8C178.64 36.8907 179.259 39.3653 179.259 42.224C179.259 45.1253 178.79 47.792 177.851 50.224C176.912 52.656 175.59 54.768 173.883 56.56C172.219 58.352 170.235 59.76 167.931 60.784C165.627 61.7653 163.088 62.256 160.315 62.256ZM139.771 74.416L148.923 28.592H152.059L149.947 39.024L148.155 44.848L147.707 50.992L142.971 74.416H139.771ZM160.379 59.376C163.408 59.376 166.096 58.6507 168.443 57.2C170.79 55.7493 172.624 53.744 173.947 51.184C175.312 48.5813 175.995 45.6587 175.995 42.416C175.995 38.832 174.95 36.08 172.859 34.16C170.811 32.1973 167.91 31.216 164.155 31.216C161.168 31.216 158.48 31.9413 156.091 33.392C153.744 34.8427 151.888 36.848 150.523 39.408C149.158 41.968 148.475 44.8907 148.475 48.176C148.475 51.7173 149.52 54.4693 151.611 56.432C153.702 58.3947 156.624 59.376 160.379 59.376Z" fill="#6366F1"/>
</svg>
