<svg width="400" height="100" viewBox="0 0 400 100" fill="none" xmlns="http://www.w3.org/2000/svg">
<path d="M178.136 27.24H189.656V45.16H205.336V27.24H216.856V73H205.336V54.568H189.656V73H178.136V27.24ZM243.744 40.232H253.984V73H243.744V68.264H243.616C241.888 71.272 238.688 74.024 232.864 74.024C226.528 74.024 222.24 69.864 222.24 62.376V40.232H232.48V59.112C232.48 64.04 234.208 65.704 237.6 65.704C241.504 65.704 243.744 63.72 243.744 59.176V40.232ZM280.116 39.208C286.452 39.208 290.74 43.368 290.74 50.856V73H280.5V54.12C280.5 49.192 278.772 47.528 275.38 47.528C271.476 47.528 269.236 49.512 269.236 54.056V73H258.996V40.232H269.236V44.968H269.364C271.092 41.96 274.292 39.208 280.116 39.208ZM313.559 47.912H307.863V61.48C307.863 65.192 309.207 65.192 313.559 65.192V72.872C311.703 73.256 310.103 73.576 307.223 73.576C299.735 73.576 297.623 69.608 297.623 62.248V47.912H293.079V40.232H297.623V31.08H307.863V40.232H313.559V47.912ZM332.804 66.344C336.324 66.344 337.988 64.68 338.628 63.08H348.804C347.012 69.672 341.892 74.024 332.996 74.024C322.116 74.024 315.524 66.856 315.524 56.616C315.524 46.632 321.988 39.208 332.42 39.208C343.62 39.208 349.316 47.4 349.316 59.304H325.764C325.764 63.912 329.156 66.344 332.804 66.344ZM332.42 46.248C328.516 46.248 325.764 48.552 325.764 53.096H339.076C339.076 48.552 336.324 46.248 332.42 46.248ZM371.177 39.656C372.073 39.656 372.841 39.656 373.993 39.912V48.872H373.865C368.617 47.912 363.049 50.792 363.049 57.768V73H352.809V40.232H363.049V45.608H363.177C364.777 41.96 367.593 39.656 371.177 39.656Z" fill="#6366F1"/>
<path d="M38.632 73L47.208 29.032H30.888L31.208 27.24H65.896L65.576 29.032H49.256L40.68 73H38.632ZM75.1835 39.656C76.2075 39.656 76.9115 39.72 77.5515 39.848L77.2315 41.512H77.1035C71.0235 40.552 64.0475 45.352 62.6395 52.584L58.6715 73H56.7515L63.1515 40.104H65.0715L63.7275 46.696H63.8555C66.0955 42.856 70.6395 39.656 75.1835 39.656ZM88.062 73.704C78.718 73.704 74.366 66.856 76.35 56.68C78.334 46.504 85.31 39.656 94.654 39.656C103.998 39.656 108.414 46.504 106.43 56.68C104.446 66.856 97.406 73.704 88.062 73.704ZM88.382 72.04C96.766 72.04 102.782 65.576 104.51 56.68C106.238 47.784 102.718 41.32 94.334 41.32C85.95 41.32 79.998 47.784 78.27 56.68C76.542 65.576 79.998 72.04 88.382 72.04ZM121.312 73.704C111.968 73.704 107.616 66.856 109.6 56.68C111.584 46.504 118.56 39.656 127.904 39.656C137.248 39.656 141.664 46.504 139.68 56.68C137.696 66.856 130.656 73.704 121.312 73.704ZM121.632 72.04C130.016 72.04 136.032 65.576 137.76 56.68C139.488 47.784 135.968 41.32 127.584 41.32C119.2 41.32 113.248 47.784 111.52 56.68C109.792 65.576 113.248 72.04 121.632 72.04ZM162.178 39.656C169.986 39.656 175.042 45.928 172.994 56.68C170.882 67.432 163.394 73.704 155.586 73.704C149.186 73.704 145.922 69.544 144.962 64.808H144.834L141.186 83.624H139.266L147.714 40.104H149.634L147.97 48.744H148.098C150.978 43.688 155.778 39.656 162.178 39.656ZM155.458 72.04C162.818 72.04 169.154 66.28 171.074 56.68C172.93 47.08 168.77 41.32 161.41 41.32C155.074 41.32 148.29 47.08 146.434 56.68C144.514 66.28 149.122 72.04 155.458 72.04Z" fill="#6366F1"/>
</svg>
