<svg width="355" height="77" viewBox="0 0 355 77" fill="none" xmlns="http://www.w3.org/2000/svg">
<path d="M153.136 16.24H164.656V34.16H180.336V16.24H191.856V62H180.336V43.568H164.656V62H153.136V16.24ZM218.744 29.232H228.984V62H218.744V57.264H218.616C216.888 60.272 213.688 63.024 207.864 63.024C201.528 63.024 197.24 58.864 197.24 51.376V29.232H207.48V48.112C207.48 53.04 209.208 54.704 212.6 54.704C216.504 54.704 218.744 52.72 218.744 48.176V29.232ZM255.116 28.208C261.452 28.208 265.74 32.368 265.74 39.856V62H255.5V43.12C255.5 38.192 253.772 36.528 250.38 36.528C246.476 36.528 244.236 38.512 244.236 43.056V62H233.996V29.232H244.236V33.968H244.364C246.092 30.96 249.292 28.208 255.116 28.208ZM288.559 36.912H282.863V50.48C282.863 54.192 284.207 54.192 288.559 54.192V61.872C286.703 62.256 285.103 62.576 282.223 62.576C274.735 62.576 272.623 58.608 272.623 51.248V36.912H268.079V29.232H272.623V20.08H282.863V29.232H288.559V36.912ZM307.804 55.344C311.324 55.344 312.988 53.68 313.628 52.08H323.804C322.012 58.672 316.892 63.024 307.996 63.024C297.116 63.024 290.524 55.856 290.524 45.616C290.524 35.632 296.988 28.208 307.42 28.208C318.62 28.208 324.316 36.4 324.316 48.304H300.764C300.764 52.912 304.156 55.344 307.804 55.344ZM307.42 35.248C303.516 35.248 300.764 37.552 300.764 42.096H314.076C314.076 37.552 311.324 35.248 307.42 35.248ZM346.177 28.656C347.073 28.656 347.841 28.656 348.993 28.912V37.872H348.865C343.617 36.912 338.049 39.792 338.049 46.768V62H327.809V29.232H338.049V34.608H338.177C339.777 30.96 342.593 28.656 346.177 28.656Z" fill="#6366F1"/>
<path d="M13.632 62L22.208 18.032H5.888L6.208 16.24H40.896L40.576 18.032H24.256L15.68 62H13.632ZM50.1835 28.656C51.2075 28.656 51.9115 28.72 52.5515 28.848L52.2315 30.512H52.1035C46.0235 29.552 39.0475 34.352 37.6395 41.584L33.6715 62H31.7515L38.1515 29.104H40.0715L38.7275 35.696H38.8555C41.0955 31.856 45.6395 28.656 50.1835 28.656ZM63.062 62.704C53.718 62.704 49.366 55.856 51.35 45.68C53.334 35.504 60.31 28.656 69.654 28.656C78.998 28.656 83.414 35.504 81.43 45.68C79.446 55.856 72.406 62.704 63.062 62.704ZM63.382 61.04C71.766 61.04 77.782 54.576 79.51 45.68C81.238 36.784 77.718 30.32 69.334 30.32C60.95 30.32 54.998 36.784 53.27 45.68C51.542 54.576 54.998 61.04 63.382 61.04ZM96.312 62.704C86.968 62.704 82.616 55.856 84.6 45.68C86.584 35.504 93.56 28.656 102.904 28.656C112.248 28.656 116.664 35.504 114.68 45.68C112.696 55.856 105.656 62.704 96.312 62.704ZM96.632 61.04C105.016 61.04 111.032 54.576 112.76 45.68C114.488 36.784 110.968 30.32 102.584 30.32C94.2 30.32 88.248 36.784 86.52 45.68C84.792 54.576 88.248 61.04 96.632 61.04ZM137.178 28.656C144.986 28.656 150.042 34.928 147.994 45.68C145.882 56.432 138.394 62.704 130.586 62.704C124.186 62.704 120.922 58.544 119.962 53.808H119.834L116.186 72.624H114.266L122.714 29.104H124.634L122.97 37.744H123.098C125.978 32.688 130.778 28.656 137.178 28.656ZM130.458 61.04C137.818 61.04 144.154 55.28 146.074 45.68C147.93 36.08 143.77 30.32 136.41 30.32C130.074 30.32 123.29 36.08 121.434 45.68C119.514 55.28 124.122 61.04 130.458 61.04Z" fill="#6366F1"/>
</svg>
