<svg width="1024" height="1024" viewBox="0 0 1024 1024" fill="none" xmlns="http://www.w3.org/2000/svg">
<rect width="1024" height="1024" rx="150" fill="url(#paint0_radial_89_16)"/>
<mask id="path-2-outside-1_89_16" maskUnits="userSpaceOnUse" x="426" y="292" width="483" height="454" fill="black">
<rect fill="white" x="426" y="292" width="483" height="454"/>
<path d="M539.8 322.75H638.8L609.1 476.75H743.85L773.55 322.75H872.55L796.1 716H697.1L727.9 557.6H593.15L562.35 716H463.35L539.8 322.75Z"/>
</mask>
<path d="M539.8 322.75V292.75H515.071L510.351 317.025L539.8 322.75ZM638.8 322.75L668.257 328.431L675.139 292.75H638.8V322.75ZM609.1 476.75L579.643 471.069L572.761 506.75H609.1V476.75ZM743.85 476.75V506.75H768.617L773.307 482.431L743.85 476.75ZM773.55 322.75V292.75H748.783L744.093 317.069L773.55 322.75ZM872.55 322.75L901.999 328.475L908.944 292.75H872.55V322.75ZM796.1 716V746H820.829L825.549 721.725L796.1 716ZM697.1 716L667.652 710.274L660.705 746H697.1V716ZM727.9 557.6L757.348 563.326L764.295 527.6H727.9V557.6ZM593.15 557.6V527.6H568.421L563.702 551.874L593.15 557.6ZM562.35 716V746H587.079L591.798 721.726L562.35 716ZM463.35 716L433.901 710.275L426.956 746H463.35V716ZM539.8 352.75H638.8V292.75H539.8V352.75ZM609.343 317.069L579.643 471.069L638.557 482.431L668.257 328.431L609.343 317.069ZM609.1 506.75H743.85V446.75H609.1V506.75ZM773.307 482.431L803.007 328.431L744.093 317.069L714.393 471.069L773.307 482.431ZM773.55 352.75H872.55V292.75H773.55V352.75ZM843.101 317.025L766.651 710.275L825.549 721.725L901.999 328.475L843.101 317.025ZM796.1 686H697.1V746H796.1V686ZM726.548 721.726L757.348 563.326L698.452 551.874L667.652 710.274L726.548 721.726ZM727.9 527.6H593.15V587.6H727.9V527.6ZM563.702 551.874L532.902 710.274L591.798 721.726L622.598 563.326L563.702 551.874ZM562.35 686H463.35V746H562.35V686ZM492.799 721.725L569.249 328.475L510.351 317.025L433.901 710.275L492.799 721.725Z" fill="white" mask="url(#path-2-outside-1_89_16)"/>
<mask id="path-4-outside-2_89_16" maskUnits="userSpaceOnUse" x="129" y="292" width="417" height="454" fill="black">
<rect fill="white" x="129" y="292" width="417" height="454"/>
<path d="M219.6 716L280.65 403.6H166.25L181.65 322.75H508.9L493.5 403.6H379.65L318.6 716H219.6Z"/>
</mask>
<path d="M219.6 716L190.157 710.246L183.17 746H219.6V716ZM280.65 403.6L310.093 409.354L317.08 373.6H280.65V403.6ZM166.25 403.6L136.78 397.987L129.996 433.6H166.25V403.6ZM181.65 322.75V292.75H156.825L152.18 317.137L181.65 322.75ZM508.9 322.75L538.37 328.363L545.154 292.75H508.9V322.75ZM493.5 403.6V433.6H518.325L522.97 409.213L493.5 403.6ZM379.65 403.6V373.6H354.945L350.207 397.846L379.65 403.6ZM318.6 716V746H343.305L348.043 721.754L318.6 716ZM249.043 721.754L310.093 409.354L251.207 397.846L190.157 710.246L249.043 721.754ZM280.65 373.6H166.25V433.6H280.65V373.6ZM195.72 409.213L211.12 328.363L152.18 317.137L136.78 397.987L195.72 409.213ZM181.65 352.75H508.9V292.75H181.65V352.75ZM479.43 317.137L464.03 397.987L522.97 409.213L538.37 328.363L479.43 317.137ZM493.5 373.6H379.65V433.6H493.5V373.6ZM350.207 397.846L289.157 710.246L348.043 721.754L409.093 409.354L350.207 397.846ZM318.6 686H219.6V746H318.6V686Z" fill="white" mask="url(#path-4-outside-2_89_16)"/>
<defs>
<radialGradient id="paint0_radial_89_16" cx="0" cy="0" r="1" gradientUnits="userSpaceOnUse" gradientTransform="translate(865.28 1162.24) rotate(-115.776) scale(1396.41 2077)">
<stop offset="0.24392" stop-color="#000E81"/>
<stop offset="0.436673" stop-color="#00229C"/>
<stop offset="0.48" stop-color="#0D37B8"/>
<stop offset="0.776787" stop-color="#414ED4"/>
<stop offset="0.893155" stop-color="#6366F1"/>
</radialGradient>
</defs>
</svg>
